<?xml version="1.0" encoding="UTF-8" standalone="no"?>
<!-- Generator: Adobe Illustrator 18.1.1, SVG Export Plug-In . SVG Version: 6.00 Build 0)  -->

<svg
   xmlns:dc="http://purl.org/dc/elements/1.1/"
   xmlns:cc="http://creativecommons.org/ns#"
   xmlns:rdf="http://www.w3.org/1999/02/22-rdf-syntax-ns#"
   xmlns:svg="http://www.w3.org/2000/svg"
   xmlns="http://www.w3.org/2000/svg"
   xmlns:sodipodi="http://sodipodi.sourceforge.net/DTD/sodipodi-0.dtd"
   xmlns:inkscape="http://www.inkscape.org/namespaces/inkscape"
   version="1.1"
   id="svg2"
   sodipodi:docname="Sail_plan_proa.svg"
   inkscape:version="0.48.5 r10040"
   x="0px"
   y="0px"
   viewBox="-231.3 347 106.3 110.3"
   enable-background="new -231.3 347 106.3 110.3"
   xml:space="preserve"
   width="100%"
   height="100%"><metadata
     id="metadata23"><rdf:RDF><cc:Work
         rdf:about=""><dc:format>image/svg+xml</dc:format><dc:type
           rdf:resource="http://purl.org/dc/dcmitype/StillImage" /><dc:title /></cc:Work></rdf:RDF></metadata><defs
     id="defs21" /><sodipodi:namedview
     fit-margin-top="0"
     fit-margin-left="0"
     showgrid="true"
     inkscape:cy="53.953582"
     inkscape:cx="55.532564"
     inkscape:zoom="6.788225"
     borderopacity="1.0"
     bordercolor="#666666"
     pagecolor="#ffffff"
     id="base"
     inkscape:window-x="85"
     inkscape:window-height="730"
     inkscape:window-y="46"
     inkscape:current-layer="layer1"
     inkscape:document-units="px"
     inkscape:pageshadow="2"
     inkscape:pageopacity="0.0"
     inkscape:window-width="819"
     fit-margin-bottom="0"
     fit-margin-right="0"
     inkscape:window-maximized="0"><inkscape:grid
       type="xygrid"
       empspacing="2"
       visible="true"
       enabled="true"
       id="grid2985"
       snapvisiblegridlinesonly="true" /></sodipodi:namedview><g
     id="layer1"
     transform="translate(0,-952.36218)"
     inkscape:label="structure"
     inkscape:groupmode="layer"><g
       id="path3051"
       inkscape:connector-curvature="0"><path
         d="M-214.7,1368c-0.1-0.1-0.1-0.2-0.1-0.3c0.1-0.1,7.2-1.9,11.8-4.8c35.7-22.3,21.8-52.8,21.8-52.8    s34.3,29.5,46.4,67.8c0.3,1-19.2,2-39-0.5C-195.1,1374.8-214.5,1368.2-214.7,1368z"
         id="path9"
         fill="#86B9F7" /><path
         d="M-214.7,1368c-0.1-0.1-0.1-0.2-0.1-0.3c0.1-0.1,0.2-0.1,0.3-0.1l0.6-0.2l1.1-0.3c0.7-0.2,1.5-0.5,2.2-0.7    c1.5-0.5,2.9-1.1,4.4-1.8c1.4-0.7,2.8-1.4,4.1-2.3c1.3-0.9,2.6-1.7,3.9-2.7c1.3-0.9,2.5-1.9,3.7-2.9c0.6-0.5,1.2-1.1,1.7-1.6    c0.6-0.5,1.2-1.1,1.7-1.6c0.5-0.6,1.1-1.1,1.6-1.7l1.5-1.8c1-1.2,1.9-2.5,2.8-3.8l0.6-1l0.6-1c0.4-0.7,0.8-1.4,1.1-2.1    c0.4-0.7,0.7-1.4,1-2.1c0.3-0.7,0.6-1.4,0.9-2.2c0.3-0.7,0.5-1.5,0.7-2.2c0.2-0.8,0.4-1.5,0.6-2.3c0.2-0.8,0.3-1.5,0.5-2.3    c0.2-0.8,0.2-1.6,0.3-2.3c0.2-1.6,0.2-3.1,0.2-4.7c0-1.6-0.1-3.1-0.3-4.7c-0.4-3.1-1.1-6.2-2.3-9.1l0,0l0,0l0,0    c0.7-0.2,0.9,0.2,1.3,0.5l1,0.9c0.6,0.6,1.3,1.2,1.9,1.8c1.2,1.2,2.5,2.4,3.7,3.6c2.4,2.4,4.7,5,7,7.5c2.3,2.6,4.5,5.2,6.6,7.9    l1.6,2l1.5,2.1c1,1.4,2.1,2.7,3.1,4.1l2.9,4.2l2.8,4.3c0.5,0.7,0.9,1.4,1.4,2.2l1.3,2.2c0.8,1.5,1.8,3,2.5,4.5l2.3,4.6l0.6,1.2    l0.5,1.2l1,2.4c1.5,3.1,2.5,6.4,3.7,9.6l0.2,0.6l0.1,0.2l0,0.1c0.1,0.3,0,0.1,0,0.2c0,0,0,0.1,0,0.2c-0.1,0.3-0.2,0.3-0.2,0.3    c-0.1,0.1-0.1,0.1-0.1,0.1c-0.1,0.1-0.1,0.1-0.2,0.1c-0.5,0.2-0.9,0.2-1.4,0.3c-0.9,0.1-1.7,0.2-2.6,0.3c-1.7,0.1-3.4,0.2-5.2,0.2    c-3.4,0.1-6.9,0.1-10.3,0c-6.9-0.2-13.7-0.7-20.5-1.6c-3.4-0.4-6.8-1-10.2-1.6c-3.4-0.6-6.7-1.3-10.1-2.1c-3.3-0.8-6.7-1.6-10-2.6    c-1.6-0.5-3.3-1-4.9-1.5l-2.5-0.8l-1.2-0.4l-0.6-0.2c-0.1,0-0.2-0.1-0.2-0.3C-214.6,1368.3-214.6,1368.1-214.7,1368z M-214.7,1368    c0.1,0.1,0.3-0.1,0.4-0.2c0.2-0.1,0.3-0.1,0.4-0.1l0.6,0.2l1.2,0.4l2.4,0.7c1.6,0.5,3.3,0.9,4.9,1.4c3.3,0.9,6.6,1.7,9.9,2.5    c3.3,0.8,6.7,1.5,10,2.1c3.4,0.6,6.7,1.2,10.1,1.6c3.4,0.5,6.8,0.8,10.2,1c3.4,0.2,6.8,0.4,10.2,0.5c3.4,0.1,6.8,0.1,10.2,0    c1.7,0,3.4-0.1,5.1-0.2c0.8-0.1,1.7-0.1,2.5-0.3c0.4-0.1,0.8-0.1,1.1-0.2c0,0,0.1,0,0.1,0s0,0,0,0c0,0,0,0-0.1,0.2    c0,0.1,0,0.2,0,0.2c0,0.1,0-0.2,0,0.1l0-0.1l-0.1-0.2l-0.2-0.6c-1.2-3.2-2.2-6.4-3.7-9.5l-1-2.3l-0.5-1.2l-0.6-1.1l-2.3-4.6    c-0.8-1.5-1.7-3-2.5-4.5l-1.3-2.2c-0.4-0.7-0.9-1.4-1.4-2.2l-2.7-4.3l-2.9-4.2c-0.9-1.4-2-2.8-3-4.1l-1.5-2l-1.6-2    c-2.1-2.7-4.3-5.3-6.6-7.9c-2.3-2.6-4.6-5.1-7-7.5c-1.2-1.2-2.4-2.4-3.6-3.6c-0.6-0.6-1.2-1.2-1.9-1.8l-0.9-0.9    c-0.3-0.3-0.7-0.5-0.6-1.2l0,0l0,0c1.2,2.9,1.9,6,2.3,9.1c0.2,1.6,0.3,3.1,0.3,4.7c0,1.6-0.1,3.1-0.2,4.7    c-0.1,0.8-0.2,1.6-0.3,2.3c-0.1,0.8-0.3,1.5-0.5,2.3c-0.2,0.8-0.4,1.5-0.6,2.3c-0.2,0.8-0.5,1.5-0.7,2.2c-0.2,0.7-0.6,1.5-0.9,2.2    c-0.3,0.7-0.7,1.4-1,2.1c-0.3,0.7-0.7,1.4-1.1,2.1l-0.6,1l-0.6,1c-0.8,1.3-1.8,2.6-2.8,3.8l-1.5,1.8c-0.5,0.6-1.1,1.1-1.6,1.7    c-0.5,0.6-1.1,1.1-1.7,1.6c-0.6,0.5-1.1,1.1-1.7,1.6c-1.2,1-2.4,2-3.7,2.9c-1.2,1-2.6,1.8-3.9,2.7c-1.3,0.9-2.7,1.6-4.1,2.3    c-1.4,0.7-2.9,1.2-4.4,1.8c-0.7,0.3-1.5,0.5-2.2,0.7l-1.1,0.3l-0.6,0.2c-0.1,0-0.2,0-0.3,0.1C-214.8,1367.9-214.8,1368-214.7,1368    z"
         id="path11" /></g><path
       id="path2991"
       inkscape:connector-curvature="0"
       d="m -175.3,1383.6622 20,-50 -20,50 z"
       style="fill:none;stroke:#000000;stroke-width:1.02062118" /><path
       d="M 12.3125 78.9375 C 12.2125 78.9375 12.70625 80.85 13.40625 83.25 L 14.59375 87.53125 L 19.09375 90.125 L 23.6875 92.75 L 54.3125 92.75 L 84.90625 92.75 L 89.59375 90.03125 L 94.3125 87.34375 L 95.5 83.25 C 96.2 80.95 96.69375 79.0375 96.59375 78.9375 C 96.49375 78.8375 94.7 79.73125 92.5 81.03125 L 88.5 83.34375 L 54.40625 83.34375 L 20.3125 83.34375 L 16.40625 81.125 C 14.20625 79.925 12.4125 78.9375 12.3125 78.9375 z "
       transform="translate(-231.3,1299.3622)"
       id="path3011" /></g><g
     id="layer2"
     inkscape:label="sail"
     inkscape:groupmode="layer" /><path
     id="path3011_1_"
     inkscape:connector-curvature="0"
     d="m -203,447.5 -2.8,-1.6 -0.8,-2.7 c -0.4,-1.5 -0.7,-2.7 -0.7,-2.7 0.1,0 1.2,0.6 2.5,1.4 l 2.4,1.4 h 21.1 21.1 l 2.5,-1.4 c 1.4,-0.8 2.5,-1.4 2.5,-1.3 0,0.1 -0.3,1.3 -0.7,2.7 l -0.7,2.5 -2.9,1.7 -2.9,1.7 -18.9,0 -18.9,0 -2.8,-1.7 0,0 z" /><line
     x1="-170.8"
     y1="447.29999"
     x2="-157.3"
     y2="435.29999"
     id="line15"
     style="fill:none;stroke:#000000;stroke-width:3" /><line
     x1="-200.8"
     y1="447.29999"
     x2="-187.3"
     y2="435.29999"
     id="line17"
     style="fill:none;stroke:#000000;stroke-width:3" /><line
     fill="none"
     x1="-172.7"
     y1="417.8"
     x2="-172.7"
     y2="417.8"
     id="line19" /></svg>